<svg width="195" height="59" viewBox="0 0 195 59" fill="none" xmlns="http://www.w3.org/2000/svg">
<g clip-path="url(#clip0_92_3)">
<path d="M-35.7512 -0.402832L-22.0261 9.77944L-22.0439 4.38478L-14.9518 4.3952L-14.9387 14.978L-2.1092 24.3735L-12.6476 24.4262L-12.6045 50.3299L-39.9958 50.3195C-41.6849 50.6737 -42.2764 50.7205 -44.528 51.0409C-45.3099 51.1518 -49.5321 51.6476 -51.4191 51.3463C-41.0239 49.9598 -31.5227 47.0426 -22.8981 40.3333C-19.6803 37.8299 -19.6538 35.0337 -19.7334 34.9535C-22.0305 38.3036 -32.8125 43.2857 -40.4072 45.453C-44.4999 46.6199 -53.1955 47.2678 -57.6599 46.6186C-61.2626 46.0952 -66.5576 43.8196 -67.1211 41.0924C-66.025 42.3104 -61.2006 44.8418 -59.7061 44.4675L-59.672 24.3941L-69.5762 24.3954L-35.7512 -0.402832ZM175.775 55.2425C175.775 57.2478 174.763 58.2504 172.74 58.2504H169.66V35.19C169.981 27.9893 173.752 24.4345 181.062 24.4345C188.603 24.4345 192.373 28.4908 192.373 36.603C192.373 44.8063 189.155 49.0445 182.671 49.2726C179.637 49.2726 177.338 48.0418 175.775 45.5355V55.2425H175.775ZM180.97 43.849C184.281 43.849 185.982 41.525 186.12 36.8765C186.12 32 184.373 29.5846 180.878 29.5846C177.384 29.5846 175.729 32 175.775 36.8765C175.959 41.525 177.66 43.849 180.97 43.849ZM157.423 44.3503C155.492 44.3503 154.481 43.4389 154.343 41.5247C154.343 39.7476 155.584 38.608 158.021 38.1523C159.814 37.7877 161.469 37.2866 162.895 36.6939V38.9273C162.895 42.3453 160.826 44.3503 157.423 44.3503ZM158.849 29.3109C161.377 29.3109 162.665 29.9948 162.803 31.362C162.803 32.6836 161.469 33.4584 158.849 33.7774C152.688 34.3699 148.457 35.9194 148.319 41.7073C148.319 47.0392 152.366 49.7283 158.205 49.2726C164.78 48.8168 168.826 45.8543 168.826 39.2007V30.9974C168.688 26.5312 165.286 24.3436 158.573 24.3436C152.963 24.3436 149.791 26.5312 149.055 30.9974H155.17C155.492 29.8581 156.688 29.3112 158.849 29.3112V29.3109ZM136.686 44.3503C134.755 44.3503 133.743 43.4389 133.606 41.5247C133.606 39.7476 134.847 38.608 137.284 38.1523C139.077 37.7877 140.732 37.2866 142.158 36.6939V38.9273C142.158 42.3453 140.089 44.3503 136.686 44.3503H136.686ZM138.112 29.3109C140.64 29.3109 141.928 29.9948 142.066 31.362C142.066 32.6836 140.732 33.4584 138.112 33.7774C131.95 34.3699 127.72 35.9194 127.582 41.7073C127.582 47.0392 131.628 49.7283 137.468 49.2726C144.043 48.8168 148.089 45.8543 148.089 39.2007V30.9974C147.951 26.5312 144.548 24.3436 137.836 24.3436C132.226 24.3436 129.054 26.5312 128.318 30.9974H134.433C134.755 29.8581 135.951 29.3112 138.112 29.3112V29.3109ZM123.959 17.8265H120.786V48.8168H126.901V20.7886C126.901 19.1935 125.568 17.8263 123.959 17.8263V17.8265ZM104.179 40.887H97.9257C97.9257 43.6667 98.8453 45.7631 100.685 47.1303C102.34 48.5431 104.915 49.2723 108.317 49.2723C114.754 49.2723 119.444 47.0848 119.444 41.1602C119.444 39.5195 118.892 38.0611 117.743 36.8762C116.409 35.646 113.697 34.5975 109.558 33.7772C106.386 33.185 104.823 32.2276 104.823 30.9974C104.823 29.7669 106.018 29.1289 108.409 29.1289C110.432 29.1289 111.674 29.7213 112.087 30.7695C112.455 31.7266 113.375 32.2279 114.8 32.2735H118.662C118.524 29.7669 117.559 27.8072 115.766 26.3944C113.927 25.0272 111.444 24.3436 108.317 24.3436C102.754 24.4347 98.6154 26.8957 98.6154 32.0912C98.6614 35.8738 101.42 38.2437 106.8 39.2007C110.984 39.9299 113.099 40.9325 113.099 42.163C113.099 43.7126 111.811 44.4417 109.237 44.4417C106.248 44.4417 104.317 43.5303 104.179 40.887Z" fill="#EC772D"/>
<path d="M96.9736 41.4345H92.4676C91.64 41.4345 90.9503 41.7079 90.3986 42.3004C89.2031 43.4395 87.8697 44.0322 86.4444 44.0322C83.4557 44.0322 81.8464 42.1637 81.6165 38.4722H97.3414C97.8012 29.0384 94.1689 24.3442 86.4444 24.3442C79.0417 24.3898 75.3174 28.4915 75.3174 36.6948C75.3174 44.8981 78.9957 49.1362 86.3524 49.3644C92.3297 49.3644 95.6402 46.5388 96.9736 41.4345V41.4345ZM86.3524 29.3118C88.9732 29.3118 90.4905 30.9525 90.8584 34.1427H81.7085C82.1683 30.9525 83.7316 29.3118 86.3524 29.3118V29.3118Z" fill="#5A5B5D"/>
<path d="M59.4022 17.8269H56.2296V48.8172H62.3448V40.0215C62.3448 39.3834 62.6667 38.9733 63.3104 38.8365C64.092 38.8365 64.8737 39.5202 65.6553 40.8874L69.9774 48.8172H77.334L68.8279 34.507L77.2421 25.5745H69.8854L62.3448 34.1424V20.7892C62.3448 19.1941 61.0114 17.8269 59.4022 17.8269V17.8269ZM36.431 17.8269H33.2584V48.8172H39.3736V40.0215C39.3736 39.3834 39.6955 38.9733 40.3392 38.8365C41.1208 38.8365 41.9025 39.5202 42.6841 40.8874L47.0062 48.8172H54.3628L45.8567 34.507L54.2709 25.5745H46.9142L39.3736 34.1424V20.7892C39.3736 19.1941 38.0402 17.8269 36.431 17.8269ZM31.7616 41.4343H27.2556C26.428 41.4343 25.7383 41.7077 25.1865 42.3002C23.9911 43.4393 22.6577 44.032 21.2323 44.032C18.2437 44.032 16.6344 42.1634 16.4045 38.4719H32.1294C32.5892 29.0381 28.9568 24.344 21.2323 24.344C13.8297 24.3896 10.1054 28.4912 10.1054 36.6946C10.1054 44.8979 13.7837 49.136 21.1404 49.3641C27.1177 49.3641 30.4282 46.5386 31.7616 41.4343V41.4343ZM21.1404 29.3116C23.7612 29.3116 25.2785 30.9522 25.6463 34.1424H16.4965C16.9563 30.9522 18.5196 29.3116 21.1404 29.3116ZM5.61228 17.8269H2.43945V48.8172H8.55468V20.789C8.55468 19.1939 7.22128 17.8267 5.61201 17.8267L5.61228 17.8269Z" fill="#5A5B5D"/>
</g>
<defs>
<clipPath id="clip0_92_3">
<rect width="195" height="59" fill="white"/>
</clipPath>
</defs>
</svg>
